#Comment line ignore any data following # character 
#Hierarchical Translation and Rotation (.htr) file 
[Header]	
#Header keywords are followed by a single value 
FileType HTR		#Single word string
DataType HTRS		#Translation followed by rotation and scale data
FileVersion 1		#integer
NumSegments 64		#integer
NumFrames 3		#integer
DataFrameRate 30		#integer, data frame rate in this file
EulerRotationOrder ZYX
CalibrationUnits mm
RotationUnits Degrees
GlobalAxisofGravity Y
BoneLengthAxis Y
ScaleFactor 1.00
[SegmentNames&Hierarchy]
#CHILD	PARENT
Pinger_Root GLOBAL
Pelvis Pinger_Root
L_Hip Pelvis
R_Hip Pelvis
Rear_Leg01 Pelvis
Spine1 Pelvis
L_Leg01 L_Hip
L_Leg02 L_Leg01
L_Leg03 L_Leg02
L_Foot L_Leg03
L_Toe1_01 L_Foot
L_Toe2_01 L_Foot
L_Toe3_01 L_Foot
planeAlignerLeft L_Foot
L_Toe1_02 L_Toe1_01
L_Toe1_03 L_Toe1_02
L_Toe2_02 L_Toe2_01
L_Toe2_03 L_Toe2_02
L_Toe3_02 L_Toe3_01
L_Toe3_03 L_Toe3_02
planeLockWeightLeft planeAlignerLeft
R_Leg01 R_Hip
R_Leg02 R_Leg01
R_Leg03 R_Leg02
R_Foot R_Leg03
planeAlignerRight R_Foot
R_Toe1_01 R_Foot
R_Toe2_01 R_Foot
R_Toe3_01 R_Foot
planeLockWeightRight planeAlignerRight
R_Toe1_02 R_Toe1_01
R_Toe1_03 R_Toe1_02
R_Toe2_02 R_Toe2_01
R_Toe2_03 R_Toe2_02
R_Toe3_02 R_Toe3_01
R_Toe3_03 R_Toe3_02
Rear_Leg02 Rear_Leg01
Rear_Leg03 Rear_Leg02
Rear_Leg04 Rear_Leg03
Rear_Foot Rear_Leg04
planeAlignerCenter Rear_Foot
Rear_Toe1_01 Rear_Foot
Rear_Toe2_01 Rear_Foot
Rear_Toe3_01 Rear_Foot
planeLockWeightCenter planeAlignerCenter
Rear_Toe1_02 Rear_Toe1_01
Rear_Toe1_03 Rear_Toe1_02
Rear_Toe2_02 Rear_Toe2_01
Rear_Toe2_03 Rear_Toe2_02
Rear_Toe3_02 Rear_Toe3_01
Rear_Toe3_03 Rear_Toe3_02
Back_Bone Spine1
Head Spine1
Motor_Bone Back_Bone
Ping_Mechanism Back_Bone
BN_LookIK Head
bottomMouth Head
L_Mouth01 Head
L_mouthFront Head
mouthGun Head
R_Mouth01 Head
R_mouthFront Head
TopMouth Head
weapon_bone Head
[BasePosition]
#SegmentName Tx, Ty, Tz, Rx, Ry, Rz, BoneLength
Pinger_Root 0.000000 0.000000 0.000000 -90.000000 0.000000 0.000000 10.000000 
Pelvis 0.000000 0.000000 0.000000 0.000000 0.000000 0.000000 10.000000 
L_Hip 0.000000 0.000000 0.000000 0.000000 0.000000 0.000000 10.000000 
R_Hip 0.000000 0.000000 0.000000 0.000000 0.000000 0.000000 10.000000 
Rear_Leg01 0.000000 0.000000 0.000000 0.000000 0.000000 0.000000 10.000000 
Spine1 0.000000 0.000000 0.000000 0.000000 0.000000 0.000000 10.000000 
L_Leg01 0.000000 0.000000 0.000000 0.000000 0.000000 0.000000 10.000000 
L_Leg02 0.000000 0.000000 0.000000 0.000000 0.000000 0.000000 10.000000 
L_Leg03 0.000000 0.000000 0.000000 0.000000 0.000000 0.000000 10.000000 
L_Foot 0.000000 0.000000 0.000000 0.000000 0.000000 0.000000 10.000000 
L_Toe1_01 0.000000 0.000000 0.000000 0.000000 0.000000 0.000000 10.000000 
L_Toe2_01 0.000000 0.000000 0.000000 0.000000 0.000000 0.000000 10.000000 
L_Toe3_01 0.000000 0.000000 0.000000 0.000000 0.000000 0.000000 10.000000 
planeAlignerLeft 0.000000 0.000000 0.000000 0.000000 0.000000 0.000000 10.000000 
L_Toe1_02 0.000000 0.000000 0.000000 0.000000 0.000000 0.000000 10.000000 
L_Toe1_03 0.000000 0.000000 0.000000 0.000000 0.000000 0.000000 10.000000 
L_Toe2_02 0.000000 0.000000 0.000000 0.000000 0.000000 0.000000 10.000000 
L_Toe2_03 0.000000 0.000000 0.000000 0.000000 0.000000 0.000000 10.000000 
L_Toe3_02 0.000000 0.000000 0.000000 0.000000 0.000000 0.000000 10.000000 
L_Toe3_03 0.000000 0.000000 0.000000 0.000000 0.000000 0.000000 10.000000 
planeLockWeightLeft 0.000000 0.000000 0.000000 0.000000 0.000000 0.000000 10.000000 
R_Leg01 0.000000 0.000000 0.000000 0.000000 0.000000 0.000000 10.000000 
R_Leg02 0.000000 0.000000 0.000000 0.000000 0.000000 0.000000 10.000000 
R_Leg03 0.000000 0.000000 0.000000 0.000000 0.000000 0.000000 10.000000 
R_Foot 0.000000 0.000000 0.000000 0.000000 0.000000 0.000000 10.000000 
planeAlignerRight 0.000000 0.000000 0.000000 0.000000 0.000000 0.000000 10.000000 
R_Toe1_01 0.000000 0.000000 0.000000 0.000000 0.000000 0.000000 10.000000 
R_Toe2_01 0.000000 0.000000 0.000000 0.000000 0.000000 0.000000 10.000000 
R_Toe3_01 0.000000 0.000000 0.000000 0.000000 0.000000 0.000000 10.000000 
planeLockWeightRight 0.000000 0.000000 0.000000 0.000000 0.000000 0.000000 10.000000 
R_Toe1_02 0.000000 0.000000 0.000000 0.000000 0.000000 0.000000 10.000000 
R_Toe1_03 0.000000 0.000000 0.000000 0.000000 0.000000 0.000000 10.000000 
R_Toe2_02 0.000000 0.000000 0.000000 0.000000 0.000000 0.000000 10.000000 
R_Toe2_03 0.000000 0.000000 0.000000 0.000000 0.000000 0.000000 10.000000 
R_Toe3_02 0.000000 0.000000 0.000000 0.000000 0.000000 0.000000 10.000000 
R_Toe3_03 0.000000 0.000000 0.000000 0.000000 0.000000 0.000000 10.000000 
Rear_Leg02 0.000000 0.000000 0.000000 0.000000 0.000000 0.000000 10.000000 
Rear_Leg03 0.000000 0.000000 0.000000 0.000000 0.000000 0.000000 10.000000 
Rear_Leg04 0.000000 0.000000 0.000000 0.000000 0.000000 0.000000 10.000000 
Rear_Foot 0.000000 0.000000 0.000000 0.000000 0.000000 0.000000 10.000000 
planeAlignerCenter 0.000000 0.000000 0.000000 0.000000 0.000000 0.000000 10.000000 
Rear_Toe1_01 0.000000 0.000000 0.000000 0.000000 0.000000 0.000000 10.000000 
Rear_Toe2_01 0.000000 0.000000 0.000000 0.000000 0.000000 0.000000 10.000000 
Rear_Toe3_01 0.000000 0.000000 0.000000 0.000000 0.000000 0.000000 10.000000 
planeLockWeightCenter 0.000000 0.000000 0.000000 0.000000 0.000000 0.000000 10.000000 
Rear_Toe1_02 0.000000 0.000000 0.000000 0.000000 0.000000 0.000000 10.000000 
Rear_Toe1_03 0.000000 0.000000 0.000000 0.000000 0.000000 0.000000 10.000000 
Rear_Toe2_02 0.000000 0.000000 0.000000 0.000000 0.000000 0.000000 10.000000 
Rear_Toe2_03 0.000000 0.000000 0.000000 0.000000 0.000000 0.000000 10.000000 
Rear_Toe3_02 0.000000 0.000000 0.000000 0.000000 0.000000 0.000000 10.000000 
Rear_Toe3_03 0.000000 0.000000 0.000000 0.000000 0.000000 0.000000 10.000000 
Back_Bone 0.000000 0.000000 0.000000 0.000000 0.000000 0.000000 10.000000 
Head 0.000000 0.000000 0.000000 0.000000 0.000000 0.000000 10.000000 
Motor_Bone 0.000000 0.000000 0.000000 0.000000 0.000000 0.000000 10.000000 
Ping_Mechanism 0.000000 0.000000 0.000000 0.000000 0.000000 0.000000 10.000000 
BN_LookIK 0.000000 0.000000 0.000000 0.000000 0.000000 0.000000 10.000000 
bottomMouth 0.000000 0.000000 0.000000 0.000000 0.000000 0.000000 10.000000 
L_Mouth01 0.000000 0.000000 0.000000 0.000000 0.000000 0.000000 10.000000 
L_mouthFront 0.000000 0.000000 0.000000 0.000000 0.000000 0.000000 10.000000 
mouthGun 0.000000 0.000000 0.000000 0.000000 0.000000 0.000000 10.000000 
R_Mouth01 0.000000 0.000000 0.000000 0.000000 0.000000 0.000000 10.000000 
R_mouthFront 0.000000 0.000000 0.000000 0.000000 0.000000 0.000000 10.000000 
TopMouth 0.000000 0.000000 0.000000 0.000000 0.000000 0.000000 10.000000 
weapon_bone 0.000000 0.000000 0.000000 0.000000 0.000000 0.000000 10.000000 
#Beginning of Data. Separated by tabs
#Fr	Tx	Ty	Tz	Rx	Ry	Rz	SF
[Pinger_Root]
3 0.000000 0.000000 0.000000 -0.000075 -0.000000 -0.000020 0.000000
4 0.000000 0.000000 0.000000 -0.000075 -0.000000 -0.000020 0.000000
5 0.000000 0.000000 0.000000 -0.000075 -0.000000 -0.000020 0.000000
[Pelvis]
3 33.400410 986.954834 4221.673828 101.797440 -81.092278 -108.868820 4335.634277
4 -68.615402 1727.931519 4201.438477 -110.451759 -79.716522 103.316925 4543.406250
5 -101.577850 1905.552612 4183.808594 -106.284546 -71.176926 98.441933 4598.445801
[L_Hip]
3 5.766392 125.831482 872.656799 160.158691 -45.484894 122.312202 881.701050
4 5.766392 125.831482 872.656799 160.158691 -45.484905 122.312202 881.701050
5 5.766392 125.831482 872.656799 156.913834 -52.237194 125.114052 881.701050
[R_Hip]
3 5.765438 125.836372 -872.654907 38.087841 49.812687 125.703735 881.699829
4 5.765438 125.836372 -872.654907 38.087841 49.812687 125.703735 881.699829
5 5.765438 125.836372 -872.654907 37.959171 50.372166 125.329926 881.699829
[Rear_Leg01]
3 -192.298416 -925.602966 -0.001907 169.969574 2.934205 -135.232224 945.367432
4 -192.298416 -925.602966 -0.001907 170.266235 4.092855 -143.857025 945.367432
5 -192.298416 -925.602966 -0.001907 169.267426 3.538963 -152.360504 945.367432
[Spine1]
3 290.604584 5.007505 0.000477 8.501105 0.594487 22.896158 290.647736
4 290.604584 5.007505 0.000477 6.702583 -0.547749 14.929199 290.647736
5 290.604584 5.007505 0.000477 5.895017 -0.880245 11.768874 290.647736
[L_Leg01]
3 761.932007 -0.002384 -0.069261 33.860847 -3.635998 -29.276274 761.932068
4 761.932007 -0.002384 -0.069261 29.655155 -5.059668 -23.651808 761.932068
5 761.932007 -0.002384 -0.069261 31.858215 -16.671085 -15.652953 761.932068
[L_Leg02]
3 1441.140503 -0.000954 -0.000715 3.447369 0.188515 -120.548195 1441.140503
4 1441.140503 -0.000954 -0.000715 6.552514 2.049426 -130.645950 1441.140503
5 1441.140503 -0.000954 -0.000715 7.441385 2.866839 -138.570038 1441.140503
[L_Leg03]
3 1686.963989 -0.000715 -0.000954 -0.057594 0.030029 126.485817 1686.963989
4 1686.963989 -0.000715 -0.000954 -0.106442 0.064265 139.321671 1686.963989
5 1686.963989 -0.000715 -0.000954 -0.117362 0.073068 142.199005 1686.963989
[L_Foot]
3 3041.570068 -30.715107 11.297464 2.381992 13.777452 51.340328 3041.746094
4 3041.570068 -30.715107 11.297464 2.212023 15.774494 60.110657 3041.746094
5 3041.570068 -30.715107 11.297464 2.714739 19.893818 62.907211 3041.746094
[L_Toe1_01]
3 -188.216690 -224.732346 -21.137953 93.794586 -5.070345 -173.813690 293.899567
4 -188.216690 -224.732346 -21.137953 93.812965 -3.080399 -173.394455 293.899567
5 -188.216690 -224.732346 -21.137953 94.088989 -2.104297 -178.894470 293.899567
[L_Toe2_01]
3 200.746536 -219.926590 148.838394 -92.723228 -25.901600 -46.600052 332.896027
4 200.746536 -219.926590 148.838394 -96.176682 -25.165239 -38.605404 332.896027
5 200.746536 -219.926590 148.838394 -97.055161 -25.822117 -36.443024 332.896027
[L_Toe3_01]
3 188.832520 -219.859131 -191.078659 -99.895660 17.796322 -63.682800 347.140900
4 188.832520 -219.859131 -191.078659 -99.874313 23.322041 -59.953487 347.140900
5 188.832520 -219.859131 -191.078659 -99.973259 25.930033 -61.377270 347.140900
[planeAlignerLeft]
3 0.812531 -811.448792 -0.314951 0.000000 -90.000000 -90.001900 811.449280
4 0.812531 -811.448792 -0.314951 0.000000 -90.000000 -90.001900 811.449280
5 0.812531 -811.448792 -0.314951 0.000000 -90.000000 -90.001900 811.449280
[L_Toe1_02]
3 413.761139 0.000477 0.000000 0.001384 -25.921574 0.001384 413.761139
4 413.761139 0.000477 0.000000 0.001412 -22.411358 0.001412 413.761139
5 413.761139 0.000477 0.000000 0.001661 0.070897 0.001661 413.761139
[L_Toe1_03]
3 464.317322 0.000358 -0.000089 0.003352 49.010281 0.003352 464.317322
4 464.317322 0.000358 -0.000089 0.000853 30.602018 -0.003173 464.317322
5 464.317322 0.000358 -0.000089 0.001673 -0.448396 -0.003292 464.317322
[L_Toe2_02]
3 342.235809 -0.000477 0.000238 0.001182 -76.640198 0.001182 342.235809
4 342.235809 -0.000477 0.000238 -0.016938 -79.904922 0.022805 342.235809
5 342.235809 -0.000477 0.000238 0.004685 -80.941147 0.004685 342.235809
[L_Toe2_03]
3 420.210846 -0.000715 0.000000 -179.993927 81.571053 -179.990433 420.210846
4 420.210846 -0.000715 0.000000 -179.999084 65.505623 -179.995499 420.210846
5 420.210846 -0.000715 0.000000 179.992401 55.327080 179.999725 420.210846
[L_Toe3_02]
3 329.270111 0.000954 0.000000 0.001176 -82.379128 0.001176 329.270111
4 329.270111 0.000954 0.000000 0.004677 -83.852959 0.004677 329.270111
5 329.270111 0.000954 0.000000 0.004676 -84.385880 0.004676 329.270111
[L_Toe3_03]
3 439.137451 -0.001907 0.000954 -179.998474 69.943047 -179.994919 439.137451
4 439.137451 -0.001907 0.000954 179.991837 60.019032 179.999084 439.137451
5 439.137451 -0.001907 0.000954 179.992523 54.124233 179.999878 439.137451
[planeLockWeightLeft]
3 -0.000954 0.000238 -0.000305 -0.011826 -0.004376 0.005620 0.001029
4 -0.000954 0.000238 -0.000305 -0.011826 -0.004376 0.005620 0.001029
5 -0.000954 0.000238 -0.000305 -0.011826 -0.004376 0.005620 0.001029
[R_Leg01]
3 761.455627 -0.001907 -0.000358 123.247940 3.705668 41.297676 761.455688
4 761.455627 -0.001907 -0.000358 137.898727 -1.170902 31.928898 761.455688
5 761.455627 -0.001907 -0.000358 141.917618 -5.584547 30.778318 761.455688
[R_Leg02]
3 1441.140625 0.000000 -0.000238 -1.427849 -0.241275 -120.637955 1441.140625
4 1441.140625 0.000000 -0.000238 -1.703203 -0.385802 -126.632172 1441.140625
5 1441.140625 0.000000 -0.000238 -1.714695 -0.398917 -124.697098 1441.140625
[R_Leg03]
3 1686.963989 0.000954 0.001431 0.079983 -0.042097 132.188034 1686.963989
4 1686.963989 0.000954 0.001431 0.087486 -0.050938 134.536163 1686.963989
5 1686.963989 0.000954 0.001431 0.091815 -0.049461 135.077225 1686.963989
[R_Foot]
3 3041.560059 -30.531288 -11.204481 -0.690753 -17.435955 57.034733 3041.734131
4 3041.560059 -30.531288 -11.204481 4.159551 -8.275188 65.765144 3041.734131
5 3041.560059 -30.531288 -11.204481 5.267316 -7.542716 66.035248 3041.734131
[planeAlignerRight]
3 -0.635147 -812.270569 -0.364304 0.000000 -89.960434 -90.005180 812.270874
4 -0.635147 -812.270569 -0.364304 0.000000 -89.960434 -90.005180 812.270874
5 -0.635147 -812.270569 -0.364304 0.000000 -89.960434 -90.005180 812.270874
[R_Toe1_01]
3 -188.383347 -224.864899 21.052242 76.995331 -1.769559 -173.383530 294.101532
4 -188.383347 -224.864899 21.052242 77.199089 -3.328613 -174.303909 294.101532
5 -188.383347 -224.864899 21.052242 77.298264 -3.828014 -175.438477 294.101532
[R_Toe2_01]
3 200.637817 -220.002121 -148.787384 -90.088402 32.709969 -56.253716 332.857574
4 200.637817 -220.002121 -148.787384 -87.180946 32.420116 -50.996456 332.857574
5 200.637817 -220.002121 -148.787384 -85.993835 32.407436 -48.776985 332.857574
[R_Toe3_01]
3 188.606735 -220.092957 191.126343 -72.463875 -11.202843 -72.541008 347.192566
4 188.606735 -220.092957 191.126343 -71.613792 -14.859058 -70.478149 347.192566
5 188.606735 -220.092957 191.126343 -71.442421 -15.946563 -69.125130 347.192566
[planeLockWeightRight]
3 -0.000477 0.000000 0.000000 -0.011823 -0.004379 -0.000027 0.000477
4 -0.000477 0.000000 0.000000 -0.011823 -0.004379 -0.000027 0.000477
5 -0.000477 0.000000 0.000000 -0.011823 -0.004379 -0.000027 0.000477
[R_Toe1_02]
3 413.762085 0.000477 -0.000119 0.001390 -25.161146 0.001390 413.762085
4 413.762085 0.000477 -0.000119 0.001386 -25.662817 0.001386 413.762085
5 413.762085 0.000477 -0.000119 0.001386 -25.670427 0.001386 413.762085
[R_Toe1_03]
3 464.317810 0.000000 0.001088 0.005584 65.735092 0.005584 464.317810
4 464.317810 0.000000 0.001088 0.004679 60.946449 0.004679 464.317810
5 464.317810 0.000000 0.001088 0.004739 61.325932 0.004739 464.317810
[R_Toe2_02]
3 342.234741 -0.000954 0.000238 0.001188 -72.310089 0.001188 342.234741
4 342.234741 -0.000954 0.000238 -0.002340 -76.375671 -0.002340 342.234741
5 342.234741 -0.000954 0.000238 -0.002338 -77.126404 -0.002338 342.234741
[R_Toe2_03]
3 420.210846 0.000715 -0.000268 0.028268 85.240952 0.028268 420.210846
4 420.210846 0.000715 -0.000268 -179.989929 82.074966 -179.993439 420.210846
5 420.210846 0.000715 -0.000268 -179.992172 79.124367 -179.995697 420.210846
[R_Toe3_02]
3 329.270355 -0.000477 -0.000954 0.001181 -76.996040 0.001181 329.270355
4 329.270355 -0.000477 -0.000954 0.001179 -79.473328 0.001179 329.270355
5 329.270355 -0.000477 -0.000954 0.001178 -80.117973 0.001178 329.270355
[R_Toe3_03]
3 439.137939 0.000238 0.001431 0.000000 89.918434 0.003497 439.137939
4 439.137939 0.000238 0.001431 -179.993179 82.311249 -179.989685 439.137939
5 439.137939 0.000238 0.001431 -179.995193 79.941521 -179.991684 439.137939
[Rear_Leg02]
3 1162.777710 -0.029802 0.005960 0.500633 -1.269986 -122.443794 1162.777710
4 1162.777710 -0.029802 0.005960 1.053835 1.938253 -66.666000 1162.777710
5 1162.777710 -0.029802 0.005960 4.514875 4.845618 -51.228344 1162.777710
[Rear_Leg03]
3 607.192505 -0.013351 -0.073195 0.010527 -0.005034 67.468903 607.192505
4 607.192505 -0.013351 -0.073195 0.008714 0.003364 47.784866 607.192505
5 607.192505 -0.013351 -0.073195 0.003803 0.005649 39.682934 607.192505
[Rear_Leg04]
3 995.874512 -0.020504 -0.011921 -0.039775 -0.019671 64.731071 995.874573
4 995.874512 -0.020504 -0.011921 -0.033055 -0.014979 30.171555 995.874573
5 995.874512 -0.020504 -0.011921 -0.029800 -0.008398 18.895613 995.874573
[Rear_Foot]
3 3096.176270 -0.067472 -0.041425 -155.973572 87.195091 38.306454 3096.176270
4 3096.176270 -0.067472 -0.041425 65.500679 88.136383 -91.611229 3096.176270
5 3096.176270 -0.067472 -0.041425 52.220169 83.455040 -100.633972 3096.176270
[planeAlignerCenter]
3 0.350077 0.966311 -838.790894 0.000009 0.000003 -179.999985 838.791565
4 0.350077 0.966311 -838.790894 0.000009 0.000003 -179.999985 838.791565
5 0.350077 0.966311 -838.790894 0.000009 0.000003 -179.999985 838.791565
[Rear_Toe1_01]
3 0.653352 83.966492 -371.173737 0.397262 34.550308 90.621788 380.553192
4 0.653352 83.966492 -371.173737 0.557014 22.661770 91.005600 380.553192
5 0.653352 83.966492 -371.173737 0.535225 23.231289 90.953568 380.553192
[Rear_Toe2_01]
3 178.200760 -294.826019 -362.060547 -7.985621 29.294071 -67.822197 499.765686
4 178.200760 -294.826019 -362.060547 -8.525498 19.910915 -69.720741 499.765686
5 178.200760 -294.826019 -362.060547 -8.542759 20.741133 -69.456116 499.765686
[Rear_Toe3_01]
3 -153.359680 -308.780914 -362.060852 3.694964 28.169016 -111.571663 499.952881
4 -153.359680 -308.780914 -362.060852 3.873612 17.584993 -110.434113 499.952881
5 -153.359680 -308.780914 -362.060852 3.893047 18.752293 -110.616493 499.952881
[planeLockWeightCenter]
3 -0.000062 0.000238 0.000000 -0.011814 -0.004373 -0.000015 0.000246
4 -0.000062 0.000238 0.000000 -0.011814 -0.004373 -0.000015 0.000246
5 -0.000062 0.000238 0.000000 -0.011814 -0.004373 -0.000015 0.000246
[Rear_Toe1_02]
3 379.707825 0.194073 0.000477 0.001332 -33.614452 0.001332 379.707855
4 379.707825 0.194073 0.000477 -0.006665 -31.656179 -0.006665 379.707855
5 379.707825 0.194073 0.000477 -0.005323 -31.942654 -0.005323 379.707855
[Rear_Toe1_03]
3 500.129700 0.165701 0.000119 0.008341 73.822227 0.008341 500.129761
4 500.129700 0.165701 0.000119 -179.991104 80.770073 -179.994614 500.129761
5 500.129700 0.165701 0.000119 -179.988464 83.261551 -179.991974 500.129761
[Rear_Toe2_02]
3 340.494507 0.000238 -0.000954 0.001200 -65.843056 0.001200 340.494507
4 340.494507 0.000238 -0.000954 0.001233 -54.415031 0.001233 340.494507
5 340.494507 0.000238 -0.000954 0.001224 -57.186573 0.001224 340.494507
[Rear_Toe2_03]
3 433.103577 0.000000 0.000238 0.005204 63.930599 0.005204 433.103546
4 433.103577 0.000000 0.000238 0.003377 49.331177 0.003377 433.103546
5 433.103577 0.000000 0.000238 0.003671 52.692696 0.003671 433.103546
[Rear_Toe3_02]
3 340.494141 -0.000358 -0.000477 -0.002394 -62.047489 -0.002394 340.494171
4 340.494141 -0.000358 -0.000477 -0.002495 -47.165340 -0.002495 340.494171
5 340.494141 -0.000358 -0.000477 -0.002465 -50.861519 -0.002465 340.494171
[Rear_Toe3_03]
3 433.103577 0.001431 -0.000238 -0.000320 58.766476 -0.003950 433.103546
4 433.103577 0.001431 -0.000238 0.000526 41.274837 -0.003312 433.103546
5 433.103577 0.001431 -0.000238 0.000383 45.191494 -0.003401 433.103546
[Back_Bone]
3 1312.175781 -701.934692 0.000954 3.507743 1.122426 -85.992157 1488.125488
4 1312.175781 -701.934692 0.000954 5.956424 1.694336 -72.676247 1488.125488
5 1312.175781 -701.934692 0.000954 6.522922 1.033535 -68.429840 1488.125488
[Head]
3 1406.159424 809.709290 0.001431 0.432610 -1.385603 5.407694 1622.625488
4 1406.159424 809.709290 0.001431 1.124470 -1.149005 -8.579425 1622.625488
5 1406.159424 809.709290 0.001431 1.103510 -1.180429 -6.903887 1622.625488
[Motor_Bone]
3 1158.364380 -417.834747 0.000477 3.081380 -11.496378 -69.737335 1231.419434
4 1158.364380 -417.834747 0.000477 -0.131905 1.356538 -71.370918 1231.419434
5 1158.364380 -417.834747 0.000477 -0.825289 12.304270 -72.602974 1231.419434
[Ping_Mechanism]
3 1176.125366 -418.181732 -16.293468 0.000103 -0.000053 82.120995 1248.363892
4 1256.336914 -464.125366 -7.514801 0.000103 -0.000053 82.120995 1339.347412
5 1285.135742 -497.009583 -7.833252 0.000103 -0.000053 82.120995 1377.916504
[BN_LookIK]
3 193.241119 1380.371704 -0.002861 0.000000 89.965736 -31.038179 1393.832153
4 193.241119 1380.371704 -0.002861 0.000000 89.965736 -31.038179 1393.832153
5 193.241119 1380.371704 -0.002861 0.000000 89.965736 -31.038179 1393.832153
[bottomMouth]
3 -435.092926 615.759399 -0.000954 -0.000022 0.000016 73.527184 753.966492
4 -435.092926 615.759399 -0.000954 -0.000022 0.000016 73.527184 753.966492
5 -435.092926 615.759399 -0.000954 -0.000022 0.000016 73.527184 753.966492
[L_Mouth01]
3 554.440979 7.658243 838.222046 150.204178 23.759130 109.605339 1005.027161
4 554.440979 7.658243 838.222046 150.204178 23.759130 109.605339 1005.027161
5 554.440979 7.658243 838.222046 150.204178 23.759130 109.605339 1005.027161
[L_mouthFront]
3 551.629089 934.514771 339.150421 0.000081 2.804060 79.119301 1136.941284
4 551.629089 934.514771 339.150421 0.000081 2.804060 79.119301 1136.941284
5 551.629089 934.514771 339.150421 0.000081 2.804060 79.119301 1136.941284
[mouthGun]
3 55.332661 1627.420898 0.000000 0.000023 0.000009 -11.038128 1628.361328
4 55.332661 1627.420898 0.000000 0.000023 0.000009 -11.038128 1628.361328
5 55.332661 1627.420898 0.000000 0.000023 0.000009 -11.038128 1628.361328
[R_Mouth01]
3 554.442383 7.659197 -838.223938 29.795891 -23.759109 109.605331 1005.029541
4 554.442383 7.659197 -838.223938 29.795891 -23.759109 109.605331 1005.029541
5 554.442383 7.659197 -838.223938 29.795891 -23.759109 109.605331 1005.029541
[R_mouthFront]
3 551.629089 934.514282 -339.151367 0.000029 -2.803930 79.119133 1136.941162
4 551.629089 934.514282 -339.151367 0.000029 -2.803930 79.119133 1136.941162
5 551.629089 934.514282 -339.151367 0.000029 -2.803930 79.119133 1136.941162
[TopMouth]
3 461.269867 -56.106091 -0.008583 -0.000059 -0.000268 92.025169 464.669525
4 461.269867 -56.106091 -0.008583 -0.000059 -0.000268 92.025169 464.669525
5 461.269867 -56.106091 -0.008583 -0.000059 -0.000268 92.025169 464.669525
[weapon_bone]
3 -987.239868 1448.372803 0.001431 0.000000 89.965736 -31.038221 1752.833740
4 -987.239868 1448.372803 0.001431 0.000000 89.965736 -31.038221 1752.833740
5 -987.239868 1448.372803 0.001431 0.000000 89.965736 -31.038221 1752.833740
